<?xml version="1.0" ?><!DOCTYPE svg  PUBLIC '-//W3C//DTD SVG 1.1//EN'  'http://www.w3.org/Graphics/SVG/1.1/DTD/svg11.dtd'><svg enable-background="new 0 0 24 24" height="24px" id="Layer_1" version="1.1" viewBox="0 0 24 24" width="24px" xml:space="preserve" xmlns="http://www.w3.org/2000/svg" xmlns:xlink="http://www.w3.org/1999/xlink"><g><g><g><g><path d="M11.2,22.3H3.1c-0.2,0-0.4-0.2-0.4-0.4V6.4c0-0.3,0.2-0.4,0.4-0.4h8.1c0.3,0,0.4,0.2,0.4,0.4v15.5      C11.6,22.1,11.4,22.3,11.2,22.3z M3.5,21.5h7.2V6.8H3.5V21.5z"/></g><g><path d="M15.6,22.3h-4.4c-0.2,0-0.4-0.2-0.4-0.4V10.4c0-0.3,0.2-0.4,0.4-0.4h4.4c0.3,0,0.4,0.2,0.4,0.4v11.5      C16,22.1,15.8,22.3,15.6,22.3z M11.6,21.5h3.5V10.8h-3.5V21.5z"/></g><g><path d="M9.9,6.8H4.4c-0.3,0-0.4-0.2-0.4-0.4V3.9c0-0.2,0.2-0.4,0.4-0.4h5.5c0.3,0,0.4,0.2,0.4,0.4v2.4      C10.3,6.6,10.2,6.8,9.9,6.8z M4.8,5.9h4.6V4.4H4.8V5.9z"/></g><g><path d="M8.3,22.3H6c-0.3,0-0.4-0.2-0.4-0.4v-3.3c0-0.3,0.2-0.4,0.4-0.4h2.3c0.3,0,0.4,0.2,0.4,0.4v3.3      C8.7,22.1,8.5,22.3,8.3,22.3z M6.4,21.5h1.4V19H6.4V21.5z"/></g><g><g><path d="M9.3,8.9H4.9c-0.2,0-0.4-0.2-0.4-0.4c0-0.2,0.2-0.4,0.4-0.4h4.4c0.2,0,0.4,0.2,0.4,0.4C9.7,8.8,9.5,8.9,9.3,8.9z"/></g><g><path d="M9.3,10.8H4.9c-0.2,0-0.4-0.2-0.4-0.4c0-0.3,0.2-0.4,0.4-0.4h4.4c0.2,0,0.4,0.2,0.4,0.4C9.7,10.6,9.5,10.8,9.3,10.8z"/></g><g><path d="M9.3,12.6H4.9c-0.2,0-0.4-0.2-0.4-0.4c0-0.2,0.2-0.4,0.4-0.4h4.4c0.2,0,0.4,0.2,0.4,0.4C9.7,12.4,9.5,12.6,9.3,12.6z"/></g><g><path d="M9.3,14.5H4.9c-0.2,0-0.4-0.2-0.4-0.4c0-0.3,0.2-0.4,0.4-0.4h4.4c0.2,0,0.4,0.2,0.4,0.4C9.7,14.2,9.5,14.5,9.3,14.5z"/></g><g><path d="M9.3,16.3H4.9c-0.2,0-0.4-0.2-0.4-0.4c0-0.2,0.2-0.4,0.4-0.4h4.4c0.2,0,0.4,0.2,0.4,0.4C9.7,16.1,9.5,16.3,9.3,16.3z"/></g></g><g><g><path d="M13.9,12.6h-1c-0.2,0-0.4-0.2-0.4-0.4c0-0.2,0.2-0.4,0.4-0.4h1c0.2,0,0.4,0.2,0.4,0.4C14.3,12.4,14.1,12.6,13.9,12.6z"/></g><g><path d="M13.9,14.5h-1c-0.2,0-0.4-0.2-0.4-0.4c0-0.3,0.2-0.4,0.4-0.4h1c0.2,0,0.4,0.2,0.4,0.4C14.3,14.2,14.1,14.5,13.9,14.5z"/></g><g><path d="M13.9,16.3h-1c-0.2,0-0.4-0.2-0.4-0.4c0-0.2,0.2-0.4,0.4-0.4h1c0.2,0,0.4,0.2,0.4,0.4C14.3,16.1,14.1,16.3,13.9,16.3z"/></g><g><path d="M13.9,18.1h-1c-0.2,0-0.4-0.2-0.4-0.4c0-0.3,0.2-0.4,0.4-0.4h1c0.2,0,0.4,0.2,0.4,0.4C14.3,17.9,14.1,18.1,13.9,18.1z"/></g><g><path d="M13.9,19.9h-1c-0.2,0-0.4-0.2-0.4-0.4c0-0.2,0.2-0.4,0.4-0.4h1c0.2,0,0.4,0.2,0.4,0.4C14.3,19.8,14.1,19.9,13.9,19.9z"/></g></g></g><g><path d="M11.9,22.3H2.3c-0.3,0-0.4-0.2-0.4-0.4c0-0.2,0.2-0.4,0.4-0.4h9.6c0.3,0,0.4,0.2,0.4,0.4C12.4,22.1,12.2,22.3,11.9,22.3z     "/></g><g><path d="M7.1,4.3c-0.2,0-0.4-0.2-0.4-0.4V2.3c0-0.3,0.2-0.4,0.4-0.4c0.3,0,0.4,0.2,0.4,0.4v1.6C7.5,4.1,7.4,4.3,7.1,4.3z"/></g></g><g><g><g><path d="M21.3,22.3h-5.7c-0.2,0-0.4-0.2-0.4-0.4V9.2c0-0.3,0.2-0.4,0.4-0.4h5.7c0.3,0,0.4,0.2,0.4,0.4v12.7      C21.7,22.1,21.6,22.3,21.3,22.3z M16,21.5h4.9V9.6H16V21.5z"/></g><g><path d="M19.1,22.3h-1.4c-0.2,0-0.4-0.2-0.4-0.4v-2c0-0.2,0.2-0.4,0.4-0.4h1.4c0.2,0,0.4,0.2,0.4,0.4v2      C19.6,22.1,19.4,22.3,19.1,22.3z M18.2,21.5h0.5v-1.1h-0.5V21.5z"/></g></g><g><path d="M22,22.3H11.2c-0.2,0-0.4-0.2-0.4-0.4c0-0.2,0.2-0.4,0.4-0.4H22c0.3,0,0.4,0.2,0.4,0.4C22.5,22.1,22.3,22.3,22,22.3z"/></g><g><path d="M18.4,9.6c-0.2,0-0.4-0.2-0.4-0.4V8c0-0.3,0.2-0.4,0.4-0.4c0.3,0,0.4,0.2,0.4,0.4v1.1C18.8,9.3,18.7,9.6,18.4,9.6z"/></g></g><g><g><path d="M17.1,11.4h-0.2c-0.2,0-0.4-0.2-0.4-0.4v-0.4c0-0.2,0.2-0.4,0.4-0.4h0.2c0.3,0,0.4,0.2,0.4,0.4V11     C17.6,11.2,17.4,11.4,17.1,11.4z"/></g><g><path d="M18.5,11.4h-0.2c-0.3,0-0.4-0.2-0.4-0.4v-0.4c0-0.2,0.2-0.4,0.4-0.4h0.2c0.2,0,0.4,0.2,0.4,0.4V11     C19,11.2,18.8,11.4,18.5,11.4z"/></g><g><path d="M19.9,11.4h-0.3c-0.2,0-0.4-0.2-0.4-0.4v-0.4c0-0.2,0.2-0.4,0.4-0.4h0.3c0.2,0,0.4,0.2,0.4,0.4V11     C20.4,11.2,20.1,11.4,19.9,11.4z"/></g></g><g><g><path d="M17.1,13.2h-0.2c-0.2,0-0.4-0.2-0.4-0.4v-0.4c0-0.3,0.2-0.4,0.4-0.4h0.2c0.3,0,0.4,0.2,0.4,0.4v0.4     C17.6,13,17.4,13.2,17.1,13.2z"/></g><g><path d="M18.5,13.2h-0.2c-0.3,0-0.4-0.2-0.4-0.4v-0.4c0-0.3,0.2-0.4,0.4-0.4h0.2c0.2,0,0.4,0.2,0.4,0.4v0.4     C19,13,18.8,13.2,18.5,13.2z"/></g><g><path d="M19.9,13.2h-0.3c-0.2,0-0.4-0.2-0.4-0.4v-0.4c0-0.3,0.2-0.4,0.4-0.4h0.3c0.2,0,0.4,0.2,0.4,0.4v0.4     C20.4,13,20.1,13.2,19.9,13.2z"/></g></g><g><g><path d="M17.1,15h-0.2c-0.2,0-0.4-0.2-0.4-0.4v-0.4c0-0.2,0.2-0.4,0.4-0.4h0.2c0.3,0,0.4,0.2,0.4,0.4v0.4     C17.6,14.9,17.4,15,17.1,15z"/></g><g><path d="M18.5,15h-0.2c-0.3,0-0.4-0.2-0.4-0.4v-0.4c0-0.2,0.2-0.4,0.4-0.4h0.2c0.2,0,0.4,0.2,0.4,0.4v0.4     C19,14.9,18.8,15,18.5,15z"/></g><g><path d="M19.9,15h-0.3c-0.2,0-0.4-0.2-0.4-0.4v-0.4c0-0.2,0.2-0.4,0.4-0.4h0.3c0.2,0,0.4,0.2,0.4,0.4v0.4     C20.4,14.9,20.1,15,19.9,15z"/></g></g><g><g><path d="M17.1,16.9h-0.2c-0.2,0-0.4-0.2-0.4-0.4v-0.4c0-0.3,0.2-0.4,0.4-0.4h0.2c0.3,0,0.4,0.2,0.4,0.4v0.4     C17.6,16.7,17.4,16.9,17.1,16.9z"/></g><g><path d="M18.5,16.9h-0.2c-0.3,0-0.4-0.2-0.4-0.4v-0.4c0-0.3,0.2-0.4,0.4-0.4h0.2c0.2,0,0.4,0.2,0.4,0.4v0.4     C19,16.7,18.8,16.9,18.5,16.9z"/></g><g><path d="M19.9,16.9h-0.3c-0.2,0-0.4-0.2-0.4-0.4v-0.4c0-0.3,0.2-0.4,0.4-0.4h0.3c0.2,0,0.4,0.2,0.4,0.4v0.4     C20.4,16.7,20.1,16.9,19.9,16.9z"/></g></g><g><g><path d="M17.1,18.7h-0.2c-0.2,0-0.4-0.2-0.4-0.4v-0.4c0-0.2,0.2-0.4,0.4-0.4h0.2c0.3,0,0.4,0.2,0.4,0.4v0.4     C17.6,18.5,17.4,18.7,17.1,18.7z"/></g><g><path d="M18.5,18.7h-0.2c-0.3,0-0.4-0.2-0.4-0.4v-0.4c0-0.2,0.2-0.4,0.4-0.4h0.2c0.2,0,0.4,0.2,0.4,0.4v0.4     C19,18.5,18.8,18.7,18.5,18.7z"/></g><g><path d="M19.9,18.7h-0.3c-0.2,0-0.4-0.2-0.4-0.4v-0.4c0-0.2,0.2-0.4,0.4-0.4h0.3c0.2,0,0.4,0.2,0.4,0.4v0.4     C20.4,18.5,20.1,18.7,19.9,18.7z"/></g></g></g></svg>